<svg width="1200" height="1200" viewBox="0 0 1200 1200" fill="none" xmlns="http://www.w3.org/2000/svg">
<rect width="1200" height="1200" fill="white"/>
<path d="M576.418 568.543C565.456 557.58 547.681 557.579 536.718 568.542C525.755 579.505 525.755 597.28 536.718 608.243C547.681 619.206 565.456 619.205 576.418 608.243L596.268 588.393L576.418 568.543ZM646.206 588.393L601.387 633.211C576.634 657.964 536.502 657.964 511.75 633.211C486.997 608.459 486.997 568.326 511.75 543.574C536.502 518.821 576.634 518.821 601.387 543.574L646.206 588.393Z" fill="#FFC200"/>
<path d="M666.191 608.243C677.154 619.205 694.928 619.206 705.891 608.243C716.854 597.28 716.854 579.505 705.891 568.542C694.928 557.579 677.154 557.58 666.191 568.543L646.341 588.393L666.191 608.243ZM596.404 588.393L641.222 543.574C665.975 518.821 706.107 518.821 730.86 543.574C755.613 568.326 755.613 608.459 730.86 633.211C706.107 657.964 665.975 657.964 641.222 633.211L596.404 588.393Z" fill="#F39200"/>
<path d="M721.698 323.236C687.252 323.236 692.013 282.864 721.698 282.864H775.615C797.288 282.864 813.125 303.891 807.29 325.759L773.115 453.603C766.446 480.518 742.273 498.181 715.6 498.181H474.704L479.705 522.572C481.372 531.824 484.342 536.993 493.276 538.553L514.704 541.539C534.934 526.459 542.659 554.045 522.303 558.738C522.303 570.514 513.134 578.924 502.298 578.924H493.276C464.935 578.924 445.529 558.738 440.528 530.142L397.183 302.209C396.35 298.845 393.849 296.322 390.515 296.322H353.005C341.336 296.322 333 287.911 333 276.136C333 265.202 341.336 255.95 353.005 255.95H390.515C408.853 255.95 425.524 266.884 433.026 282.864L442.195 323.236L467.202 457.809H715.6C724.769 457.809 732.271 451.921 734.771 443.511L766.446 323.236H721.698Z" fill="#FFC200"/>
<path d="M531.093 234.392C533.536 225.69 545.872 225.69 548.315 234.392L559.831 275.412C560.675 278.416 563.022 280.763 566.025 281.606L607.045 293.122C615.747 295.565 615.747 307.902 607.045 310.345L566.025 321.861C563.022 322.704 560.675 325.051 559.831 328.055L548.315 369.075C545.872 377.777 533.536 377.777 531.093 369.075L519.577 328.055C518.733 325.051 516.386 322.704 513.383 321.861L472.363 310.345C463.66 307.902 463.66 295.565 472.363 293.122L513.383 281.606C516.386 280.763 518.733 278.416 519.577 275.412L531.093 234.392Z" fill="#F39200"/>
<path d="M639.066 221.86C640.511 216.713 647.807 216.713 649.252 221.86L656.063 246.121C656.562 247.897 657.95 249.285 659.726 249.784L683.987 256.595C689.134 258.04 689.134 265.336 683.987 266.781L659.726 273.592C657.95 274.09 656.562 275.478 656.063 277.255L649.252 301.515C647.807 306.662 640.511 306.662 639.066 301.515L632.255 277.255C631.757 275.478 630.369 274.09 628.592 273.592L604.332 266.781C599.185 265.336 599.185 258.04 604.332 256.595L628.592 249.784C630.369 249.285 631.757 247.897 632.255 246.121L639.066 221.86Z" fill="#3C3C3B"/>
<path d="M615.425 330.936C616.903 325.67 624.369 325.67 625.847 330.936L631.171 349.9C631.681 351.718 633.101 353.138 634.919 353.648L653.883 358.972C659.149 360.45 659.148 367.915 653.883 369.394L634.919 374.718C633.101 375.228 631.681 376.648 631.171 378.466L625.847 397.429C624.368 402.695 616.903 402.695 615.425 397.429L610.101 378.466C609.591 376.648 608.171 375.228 606.353 374.718L587.389 369.394C582.123 367.915 582.123 360.45 587.389 358.972L606.353 353.648C608.171 353.138 609.591 351.717 610.101 349.9L615.425 330.936Z" fill="#F39200"/>
<path d="M169.62 918V771.26H195.36V918H169.62ZM299.814 918V851.56C299.814 835.06 291.454 829.56 278.474 829.56C266.594 829.56 256.474 836.6 251.194 843.86V918H228.094V811.74H251.194V826.26C258.234 817.9 271.874 809.1 288.594 809.1C311.474 809.1 322.914 821.42 322.914 843.2V918H299.814ZM346.318 897.32L360.618 877.52C370.738 888.3 386.578 897.76 407.038 897.76C428.158 897.76 436.518 887.42 436.518 877.74C436.518 864.54 420.898 860.58 403.078 855.96C379.098 850.02 350.938 842.98 350.938 811.96C350.938 787.76 372.278 769.06 404.398 769.06C427.278 769.06 445.758 776.32 459.398 789.52L444.658 808.66C433.218 797.22 417.598 791.94 402.198 791.94C387.018 791.94 377.338 799.2 377.338 810.2C377.338 821.64 392.298 825.38 409.678 829.78C433.878 835.94 462.698 843.42 462.698 875.32C462.698 899.74 445.538 920.64 405.938 920.64C378.878 920.64 359.298 911.18 346.318 897.32ZM516.62 920.64C498.8 920.64 489.34 910.96 489.34 893.36V831.98H471.74V811.74H489.34V782.7H512.44V811.74H534V831.98H512.44V887.64C512.44 894.9 515.96 900.18 522.56 900.18C526.96 900.18 531.14 898.42 532.9 896.44L538.4 913.82C534.22 917.78 527.4 920.64 516.62 920.64ZM568.614 794.14C560.914 794.14 554.314 787.76 554.314 779.84C554.314 771.92 560.914 765.54 568.614 765.54C576.534 765.54 582.914 771.92 582.914 779.84C582.914 787.76 576.534 794.14 568.614 794.14ZM557.174 918V811.74H580.274V918H557.174ZM623.88 794.14C616.18 794.14 609.58 787.76 609.58 779.84C609.58 771.92 616.18 765.54 623.88 765.54C631.8 765.54 638.18 771.92 638.18 779.84C638.18 787.76 631.8 794.14 623.88 794.14ZM635.54 811.74V924.16C635.54 946.82 623.66 961.12 600.34 961.12C595.5 961.12 591.76 960.68 588.46 960.02L590.88 940.88C592.64 941.32 595.5 941.54 597.48 941.54C605.84 941.54 612.44 936.7 612.44 924.16V811.74H635.54ZM667.707 918V771.26H690.807V918H667.707ZM883.599 918L872.819 889.84H803.299L792.519 918H764.359L821.999 771.26H854.119L911.759 918H883.599ZM838.059 793.04L810.559 867.18H865.559L838.059 793.04ZM929.986 918V771.26H955.726V918H929.986Z" fill="#3C3C3B"/>
<path d="M719.453 905.02C719.453 896.66 726.493 889.62 734.853 889.62C743.213 889.62 750.253 896.66 750.253 905.02C750.253 913.38 743.213 920.42 734.853 920.42C726.493 920.42 719.453 913.38 719.453 905.02Z" fill="#3C3C3B"/>
<path d="M719.453 905.02C719.453 896.66 726.493 889.62 734.853 889.62C743.213 889.62 750.253 896.66 750.253 905.02C750.253 913.38 743.213 920.42 734.853 920.42C726.493 920.42 719.453 913.38 719.453 905.02Z" fill="#F39200"/>
</svg>
