<svg width="1719" height="650" viewBox="0 0 1719 650" fill="none" xmlns="http://www.w3.org/2000/svg">
<rect width="1719" height="650" fill="white"/>
<path d="M688.156 397V250.26H713.896V397H688.156ZM818.349 397V330.56C818.349 314.06 809.989 308.56 797.009 308.56C785.129 308.56 775.009 315.6 769.729 322.86V397H746.629V290.74H769.729V305.26C776.769 296.9 790.409 288.1 807.129 288.1C830.009 288.1 841.449 300.42 841.449 322.2V397H818.349ZM864.853 376.32L879.153 356.52C889.273 367.3 905.113 376.76 925.573 376.76C946.693 376.76 955.053 366.42 955.053 356.74C955.053 343.54 939.433 339.58 921.613 334.96C897.633 329.02 869.473 321.98 869.473 290.96C869.473 266.76 890.813 248.06 922.933 248.06C945.813 248.06 964.293 255.32 977.933 268.52L963.193 287.66C951.753 276.22 936.133 270.94 920.733 270.94C905.553 270.94 895.873 278.2 895.873 289.2C895.873 300.64 910.833 304.38 928.213 308.78C952.413 314.94 981.233 322.42 981.233 354.32C981.233 378.74 964.073 399.64 924.473 399.64C897.413 399.64 877.833 390.18 864.853 376.32ZM1035.16 399.64C1017.34 399.64 1007.88 389.96 1007.88 372.36V310.98H990.276V290.74H1007.88V261.7H1030.98V290.74H1052.54V310.98H1030.98V366.64C1030.98 373.9 1034.5 379.18 1041.1 379.18C1045.5 379.18 1049.68 377.42 1051.44 375.44L1056.94 392.82C1052.76 396.78 1045.94 399.64 1035.16 399.64ZM1087.15 273.14C1079.45 273.14 1072.85 266.76 1072.85 258.84C1072.85 250.92 1079.45 244.54 1087.15 244.54C1095.07 244.54 1101.45 250.92 1101.45 258.84C1101.45 266.76 1095.07 273.14 1087.15 273.14ZM1075.71 397V290.74H1098.81V397H1075.71ZM1142.42 273.14C1134.72 273.14 1128.12 266.76 1128.12 258.84C1128.12 250.92 1134.72 244.54 1142.42 244.54C1150.34 244.54 1156.72 250.92 1156.72 258.84C1156.72 266.76 1150.34 273.14 1142.42 273.14ZM1154.08 290.74V403.16C1154.08 425.82 1142.2 440.12 1118.88 440.12C1114.04 440.12 1110.3 439.68 1107 439.02L1109.42 419.88C1111.18 420.32 1114.04 420.54 1116.02 420.54C1124.38 420.54 1130.98 415.7 1130.98 403.16V290.74H1154.08ZM1186.24 397V250.26H1209.34V397H1186.24ZM1402.13 397L1391.35 368.84H1321.83L1311.05 397H1282.89L1340.53 250.26H1372.65L1430.29 397H1402.13ZM1356.59 272.04L1329.09 346.18H1384.09L1356.59 272.04ZM1448.52 397V250.26H1474.26V397H1448.52Z" fill="#3C3C3B"/>
<path d="M1237.99 384.02C1237.99 375.66 1245.03 368.62 1253.39 368.62C1261.75 368.62 1268.79 375.66 1268.79 384.02C1268.79 392.38 1261.75 399.42 1253.39 399.42C1245.03 399.42 1237.99 392.38 1237.99 384.02Z" fill="#3C3C3B"/>
<path d="M1237.99 384.02C1237.99 375.66 1245.03 368.62 1253.39 368.62C1261.75 368.62 1268.79 375.66 1268.79 384.02C1268.79 392.38 1261.75 399.42 1253.39 399.42C1245.03 399.42 1237.99 392.38 1237.99 384.02Z" fill="#F39200"/>
<path d="M360.321 426.679C351.074 417.432 336.081 417.431 326.834 426.678C317.587 435.925 317.587 450.918 326.834 460.165C336.081 469.412 351.074 469.412 360.321 460.165L377.064 443.422L360.321 426.679ZM419.186 443.422L381.382 481.226C360.503 502.104 326.652 502.105 305.773 481.226C284.895 460.347 284.895 426.496 305.773 405.618C326.652 384.739 360.503 384.739 381.382 405.618L419.186 443.422Z" fill="#FFC200"/>
<path d="M436.043 460.165C445.29 469.412 460.282 469.412 469.53 460.165C478.777 450.918 478.777 435.925 469.53 426.678C460.282 417.431 445.29 417.432 436.043 426.679L419.3 443.422L436.043 460.165ZM377.178 443.422L414.982 405.618C435.861 384.739 469.712 384.739 490.59 405.618C511.469 426.496 511.469 460.347 490.59 481.226C469.712 502.105 435.861 502.104 414.982 481.226L377.178 443.422Z" fill="#F39200"/>
<path d="M482.862 219.766C453.808 219.766 457.823 185.712 482.862 185.712H528.341C546.621 185.712 559.98 203.448 555.058 221.894L526.232 329.729C520.607 352.431 500.217 367.329 477.718 367.329H274.525L278.744 387.903C280.15 395.707 282.655 400.067 290.191 401.382L308.265 403.902C325.329 391.181 331.844 414.45 314.675 418.409C314.675 428.341 306.941 435.435 297.8 435.435H290.191C266.286 435.435 249.917 418.409 245.699 394.288L209.138 202.029C208.435 199.192 206.326 197.063 203.513 197.063H171.874C162.031 197.063 155 189.969 155 180.037C155 170.814 162.031 163.01 171.874 163.01H203.513C218.981 163.01 233.043 172.233 239.371 185.712L247.105 219.766L268.197 333.276H477.718C485.452 333.276 491.78 328.31 493.889 321.216L520.607 219.766H482.862Z" fill="#FFC200"/>
<path d="M322.089 144.827C324.15 137.487 334.555 137.487 336.616 144.827L346.33 179.427C347.041 181.96 349.021 183.94 351.554 184.651L386.154 194.365C393.494 196.426 393.494 206.831 386.154 208.892L351.554 218.606C349.021 219.317 347.041 221.297 346.33 223.83L336.616 258.43C334.555 265.77 324.15 265.77 322.089 258.43L312.375 223.83C311.664 221.297 309.684 219.317 307.151 218.606L272.551 208.892C265.211 206.831 265.211 196.426 272.551 194.365L307.151 184.651C309.684 183.94 311.664 181.96 312.375 179.427L322.089 144.827Z" fill="#F39200"/>
<path d="M413.164 134.256C414.382 129.915 420.536 129.915 421.755 134.256L427.5 154.719C427.921 156.218 429.092 157.389 430.59 157.809L451.053 163.554C455.395 164.773 455.395 170.927 451.053 172.146L430.59 177.891C429.092 178.311 427.921 179.482 427.5 180.981L421.755 201.444C420.536 205.785 414.382 205.785 413.164 201.444L407.419 180.981C406.998 179.482 405.827 178.311 404.329 177.891L383.865 172.146C379.524 170.927 379.524 164.773 383.865 163.554L404.329 157.809C405.827 157.389 406.998 156.218 407.419 154.719L413.164 134.256Z" fill="#3C3C3B"/>
<path d="M393.223 226.26C394.47 221.819 400.766 221.819 402.013 226.26L406.504 242.256C406.934 243.789 408.132 244.987 409.665 245.417L425.661 249.908C430.103 251.155 430.103 257.452 425.661 258.699L409.665 263.189C408.132 263.62 406.934 264.818 406.504 266.351L402.013 282.346C400.766 286.788 394.47 286.788 393.223 282.346L388.732 266.351C388.302 264.818 387.104 263.62 385.571 263.189L369.575 258.699C365.133 257.452 365.133 251.155 369.575 249.908L385.571 245.417C387.104 244.987 388.302 243.789 388.732 242.256L393.223 226.26Z" fill="#F39200"/>
</svg>
