<?xml version="1.0" encoding="utf-8"?>
<!-- Generator: Adobe Illustrator 25.2.0, SVG Export Plug-In . SVG Version: 6.00 Build 0)  -->
<svg version="1.1" id="Layer_1" xmlns="http://www.w3.org/2000/svg" xmlns:xlink="http://www.w3.org/1999/xlink" x="0px" y="0px"
	 viewBox="0 0 1700.8 487.6" style="enable-background:new 0 0 1700.8 487.6;" xml:space="preserve">
<style type="text/css">
	.st0{fill:#414042;}
	.st1{fill:#F7941D;}
</style>
<path class="st0" d="M31.8,338.7v-14.2h-0.3V203.1H5.2v-14.3H48v135.6h25.7v14.2H31.8z"/>
<path class="st0" d="M203.8,338.7v-14.2v-98.5c0-8.4-2.2-14.9-6.7-19.3c-4.4-4.6-10.8-7-19-7c-8.9,0-18.4,2.5-28.5,7.6
	c-10.4,5.3-19.2,11.4-26.6,18.4v98.8h24.4v14.2h-40.9v-14.2V203.1H79.3v-14.3h43.7v20.3c8.4-7.4,17.5-13.3,27.2-17.7
	c9.7-4.4,19.7-6.7,30.1-6.7c11.8,0,21.4,3.5,28.8,10.4c7.4,7.4,11.1,17,11.1,28.8v100.4h23.8v14.2H203.8z"/>
<path class="st1" d="M404.2,339.3c-6.1,4.9-13.2,8.5-21.2,10.8c-8,2.3-16.8,3.5-26.3,3.5c-11,0-20.9-2-29.8-6
	c-2.1-0.8-4.2-2-6.3-3.5v4.8h-34.8v-72.2h34.8c0.2,11,1.2,18.8,3,23.6c1.8,4.8,4.2,8.5,7.1,11.2c6.5,6.1,15.7,9.2,27.6,9.2
	c8.9,0,16.4-2.2,22.5-6.7c3-2.3,5-4.6,6.2-6.8c1.2-2.2,1.7-4.6,1.7-7.1c0-3.4-0.4-5.9-1.3-7.6c-0.8-1.7-2-3.1-3.5-4.1
	c-2.1-1.7-5.6-3.3-10.4-4.8c-4.9-1.5-11.5-2.9-20-4.4c-9.3-1.7-17.6-3.8-24.9-6.3c-7.3-2.5-13.4-5.6-18.2-9.2
	c-5.9-4.2-10.1-9.5-12.7-15.8c-2.5-6.3-3.8-13.3-3.8-20.9c0-16.1,5.8-28.9,17.4-38.7c11-9.1,24.3-13.6,39.9-13.6
	c5.9,0,11.6,0.7,17.1,2c5.5,1.4,10.7,3.6,15.5,6.5h32.9v63H383c-0.4-9.3-1.4-16-2.8-20.1c-1.5-4.1-3.6-7.3-6.3-9.6
	c-3-2.6-6.2-4.5-9.7-5.9c-3.5-1.4-7.7-2-12.5-2c-4.2,0-7.7,0.5-10.4,1.4c-2.7,1-5,2.3-6.7,4c-3.6,3.6-5.4,7.7-5.4,12.4
	c0,3,0.4,5.1,1.1,6.5c0.7,1.4,1.6,2.5,2.7,3.3c1.9,1.1,5.1,2.3,9.5,3.8c4.4,1.5,10.7,2.8,18.7,4.1c11.2,2.1,21,4.6,29.5,7.6
	c8.4,3,15,6.8,19.6,11.4c4.6,4.6,8,10,10.1,16c2.1,6,3.2,12.5,3.2,19.5C423.5,315.4,417.1,329,404.2,339.3z"/>
<path class="st1" d="M498.7,352.3c-5.9,0-11.2-0.8-16-2.4c-4.8-1.6-8.9-4.3-12.5-8.1c-3.6-3.6-6.1-7.8-7.4-12.5
	c-1.4-4.7-2.1-9.9-2.1-15.4V213.2h-26.6v-34.5h26.6v-33.3l36.7-1v34.2h31.4v34.5h-31.4v97.6c0,3.4,0.3,5.5,1,6.3h1.6l28.8-4.7v34.8
	L498.7,352.3z"/>
<path class="st1" d="M581.1,348.8l-0.6-14.2V213.2h-26.3v-34.5h63v135.6h25.7v34.5H581.1z"/>
<path class="st1" d="M665.7,357.4V178.7H730v34.5h-27.6v140c0,4.9,0.4,9,1.3,12.4c0.8,3.4,2.5,6.1,4.9,8.2c2.4,2.1,5.8,3.5,10.1,4.3
	c4.3,0.7,10,0.9,16.9,0.5v34.5c-13.9,1.1-25,0.3-33.3-2.4c-8.2-2.6-15.1-6.5-20.6-11.6c-5.7-5.3-9.8-11.4-12.4-18.4
	C667,373.9,665.7,366,665.7,357.4z"/>
<path class="st1" d="M762.1,348.8v-24.4V148H747v-34.5h51.9v200.8h26.9v34.5H762.1z"/>
<path class="st0" d="M1076.3,338.7v-14.2v-98.5c0-8.2-2.1-14.7-6.3-19.3c-4.4-4.6-10.7-7-18.7-7c-8.9,0-18.2,2.4-27.9,7.3
	c-9.5,5.1-18.4,11.7-26.6,20v111.8h-16.5V225.9c0-8.2-2.1-14.7-6.3-19.3c-4-4.6-10.4-7-19-7c-8.7,0-17.8,2.5-27.6,7.6
	c-10.4,5.3-19.2,11.4-26.6,18.4v98.8h24.7v14.2h-41.2v-14.2V203.1h-27.2v-14.3h43.7v20.3c8.2-7.6,16.9-13.5,26-17.7
	c9.7-4.4,19.5-6.7,29.5-6.7c9.5,0,17.6,2.2,24.4,6.7c6.8,4.4,11.5,11.2,14.3,20.3c5.7-6.3,14.4-12.5,26-18.4c11-5.7,21.3-8.5,31-8.5
	c12.5,0,22.4,3.5,29.8,10.4c7.4,7.4,11.1,17,11.1,28.8v100.4h23.4v14.2H1076.3z"/>
<path class="st0" d="M1137.7,267.4c1.1,17.7,7.1,32.3,18.1,43.7c11.8,12.5,27,18.7,45.6,18.7c3.2,0,6.9-0.5,11.2-1.6
	c4.3-1,8.4-2.1,12.2-3.3c3.8-1.2,8.5-2.8,13.9-4.9l3.8,12c-6.1,2.3-11.4,4.2-15.8,5.5c-4.4,1.4-9.2,2.7-14.3,3.8
	c-5.1,1.2-9.6,1.7-13.6,1.7c-22.4,0-40.9-7.5-55.4-22.5c-14.6-14.8-21.9-33.7-21.9-56.7c0-22.8,7.2-41.7,21.5-56.7
	c14.4-15,32.6-22.5,54.8-22.5c21.5,0,39.2,7.3,52.9,21.8c13.5,14.4,20.9,34.6,22.2,60.8H1137.7z M1236.9,213.9
	c-10.6-10.1-24-15.2-40.2-15.2c-17.1,0-31.3,6.2-42.4,18.7c-8.2,8.9-13.5,20.8-15.8,35.8h117.2
	C1253.5,237.3,1247.2,224.2,1236.9,213.9z"/>
<path class="st0" d="M1497.3,338.7v-14.2h-0.3V203.1h-26.3v-14.3h42.8v135.6h25.7v14.2H1497.3z"/>
<path class="st0" d="M1651.5,338.7v-21.2c-8.2,7.4-17.1,13.1-26.6,17.1c-10.1,4.2-19.3,6.3-27.6,6.3c-13.5,0-24.6-4.3-33.3-13
	c-8.9-8.9-13.3-19.3-13.3-31.4c0-13.3,5.1-24.3,15.2-32.9c10.4-8.9,24-13.3,40.9-13.3c5.9,0,12.9,1,20.9,2.9
	c7.8,1.9,15.7,5.1,23.8,9.5v-35.5c0-11-3.6-18.8-10.8-23.4c-7.4-4.9-17.1-7.3-29.1-7.3c-3.2,0-6.7,0.4-10.6,1.3
	c-3.9,0.9-7.6,1.7-10.9,2.7c-3.4,1-7.4,2.2-12,3.6l-4.1-9.8c4.9-1.9,9.2-3.5,13-4.8c3.8-1.3,8-2.4,12.5-3.3
	c4.5-0.9,8.8-1.4,12.8-1.4c18.2,0,32,3.5,41.5,10.4c9.5,7,14.3,17.6,14.3,32v97.3h25v14.2H1651.5z M1651.5,276
	c-6.3-4-12.9-7.2-19.6-9.5c-7.4-2.5-14.8-3.8-22.2-3.8c-13.3,0-23.7,3.4-31,10.1c-7.4,6.8-11.1,15.1-11.1,25c0,8.2,3,15.3,8.9,21.2
	c6.1,6.1,14.4,9.2,24.7,9.2c8.9,0,17.9-2.3,26.9-7c9.5-4.9,17.3-10.8,23.4-17.7V276z"/>
<path class="st1" d="M614.6,137.1c-4.9,4.4-10.2,6.7-16.2,6.7c-5.9,0-11.3-2.2-16.1-6.7c-4.4-4.9-6.7-10.2-6.7-16.2
	c0-6.5,2.2-12,6.7-16.5c4.9-4.4,10.2-6.7,16.1-6.7c5.9,0,11.3,2.2,16.2,6.7c4.4,4.9,6.7,10.2,6.7,16.1
	C621.2,127.2,619,132.7,614.6,137.1z"/>
<path class="st1" d="M700.8,137.1c-4.9,4.4-10.2,6.7-16.2,6.7c-5.9,0-11.3-2.2-16.2-6.7c-4.4-4.9-6.7-10.2-6.7-16.2
	c0-6.5,2.2-12,6.7-16.5c4.9-4.4,10.2-6.7,16.2-6.7c5.9,0,11.3,2.2,16.2,6.7c4.4,4.9,6.7,10.2,6.7,16.1
	C707.4,127.2,705.2,132.7,700.8,137.1z"/>
<polygon class="st0" points="798.2,422 798.2,448.9 315.7,448.9 315.7,422 285.2,422 285.2,448.9 285.2,485.7 305.5,485.7 
	804.3,485.7 828.7,485.7 828.7,448.9 828.7,422 "/>
<polygon class="st0" points="798.2,65.6 798.2,38.6 315.7,38.6 315.7,65.6 285.2,65.6 285.2,38.6 285.2,1.9 305.5,1.9 804.3,1.9 
	828.7,1.9 828.7,38.6 828.7,65.6 "/>
<path class="st0" d="M1443.7,324.4V138.3h0v-14.7h-42.9v14.7h26.5v81.6c-8-13.1-17.1-22.3-27.2-27.6c-10.6-5.1-21.1-7.6-31.7-7.6
	c-21.1,0-38.6,7.5-52.6,22.5c-13.7,15-20.6,33.9-20.6,56.7c0,22,7.1,40.3,21.2,55.1c14.1,14.6,31.8,21.8,52.9,21.8
	c10.8,0,21.2-2.4,31.4-7.3c9.7-4.7,18.6-12.9,26.6-24.7v29.8h43.7v-14.2H1443.7z M1411.1,309.2c-10.8,12.1-24.7,18.1-41.8,18.1
	c-16.5,0-30.4-6.1-41.8-18.4c-11.2-12.5-16.8-27.4-16.8-45c0-18.4,5.6-34,16.8-46.9c10.8-12.4,24.5-18.7,41.2-18.7
	c16.5,0,30.4,6.2,41.8,18.7c11.4,12.5,17.1,27.8,17.1,45.9C1427.6,281.6,1422.1,297,1411.1,309.2z"/>
</svg>
